<svg width="25" height="24" viewBox="0 0 25 24" fill="none" xmlns="http://www.w3.org/2000/svg">
<path fill-rule="evenodd" clip-rule="evenodd" d="M8.08895 3.38546C8.1778 3.52092 8.07749 3.75186 7.87687 4.21374C7.79966 4.39151 7.7296 4.57312 7.66706 4.75819C7.59288 4.9777 7.55579 5.08746 7.47739 5.14373C7.39898 5.19999 7.29013 5.19999 7.07243 5.19999H4.48139C3.94165 5.19999 3.50411 5.63651 3.50411 6.17499C3.50411 6.71346 3.94165 7.14998 4.48139 7.14998H16.2776C17.1093 7.13732 18.9295 7.14275 19.5563 7.26578C20.4631 7.3874 21.2639 7.65257 21.9051 8.29227C22.5463 8.93197 22.812 9.73091 22.9339 10.6355C23.0501 11.4972 23.05 12.5859 23.05 13.9062V15.9937C23.05 17.314 23.0501 18.4027 22.9339 19.2644C22.812 20.169 22.5463 20.9679 21.9051 21.6076C21.2639 22.2473 20.4631 22.5125 19.5563 22.6341C18.6927 22.75 17.6014 22.75 16.278 22.7499H10.274C8.49197 22.7499 7.0556 22.75 5.92591 22.5984C4.75304 22.4411 3.76551 22.1046 2.9812 21.3221C2.19688 20.5396 1.85953 19.5543 1.70185 18.3842C1.54997 17.2572 1.54999 15.8241 1.55001 14.0463V6.175C1.55001 4.55957 2.86263 3.25001 4.48183 3.25001L7.29625 3.25C7.76548 3.25 8.0001 3.25 8.08895 3.38546ZM17.8 12.9998C18.9046 12.9998 19.8 13.8952 19.8 14.9998C19.8 16.1043 18.9046 16.9998 17.8 16.9998C16.6954 16.9998 15.8 16.1043 15.8 14.9998C15.8 13.8952 16.6954 12.9998 17.8 12.9998Z" fill="#98958D"/>
<path d="M19.7557 6.03151C19.863 6.0463 19.9555 5.95355 19.9339 5.84742C19.4001 3.22413 17.0803 1.25 14.2994 1.25C11.6264 1.25 9.37933 3.07399 8.73504 5.54525C8.68747 5.72772 8.82963 5.90006 9.01821 5.90006H16.2679C16.6968 5.89365 17.3712 5.89192 18.0232 5.90742C18.6197 5.92161 19.3159 5.95164 19.7557 6.03151Z" fill="#98958D"/>
</svg>
