<svg width="25" height="24" viewBox="0 0 25 24" fill="none" xmlns="http://www.w3.org/2000/svg">
<path fill-rule="evenodd" clip-rule="evenodd" d="M12.1694 1.46967C12.31 1.32902 12.5008 1.25 12.6997 1.25H22.6997C23.1139 1.25 23.4497 1.58579 23.4497 2V12C23.4497 12.1989 23.3707 12.3897 23.23 12.5303L14.6442 21.1161C13.5703 22.1901 11.8291 22.1901 10.7552 21.1161L3.58358 13.9445C2.50964 12.8706 2.50964 11.1294 3.58358 10.0555L12.1694 1.46967ZM19.7 6.5C19.7 5.67157 19.0285 5 18.2 5C17.3716 5 16.7 5.67157 16.7 6.5C16.7 7.32843 17.3716 8 18.2 8C19.0285 8 19.7 7.32843 19.7 6.5ZM13.0021 10.3918C13.1802 10.2169 13.6792 10.1346 14.126 10.5736C14.3246 10.7688 14.4238 10.9956 14.4455 11.1904C14.4915 11.6021 14.8625 11.8985 15.2741 11.8526C15.6858 11.8066 15.9822 11.4357 15.9363 11.024C15.9013 10.7106 15.8015 10.4016 15.6434 10.1156L15.7258 10.0347C16.0212 9.74437 16.0254 9.26951 15.735 8.97407C15.4447 8.67863 14.9699 8.67448 14.6744 8.96481L14.5764 9.06109C13.7412 8.60967 12.6804 8.60493 11.9508 9.32196C11.567 9.69912 11.285 10.2089 11.3686 10.8405C11.4445 11.4143 11.8059 11.9258 12.2779 12.3897C12.6693 12.7743 12.7778 13.0167 12.7963 13.1407C12.8053 13.2017 12.812 13.3252 12.5702 13.5628C12.383 13.7467 12.2344 13.7668 12.0895 13.7403C11.8987 13.7054 11.6353 13.5667 11.339 13.2756C11.1001 13.0408 10.9755 12.7751 10.9413 12.5541C10.8779 12.1448 10.4947 11.8643 10.0854 11.9277C9.67601 11.9911 9.39556 12.3743 9.45894 12.7836C9.51018 13.1146 9.63093 13.4409 9.81193 13.7431L9.73946 13.8143C9.44402 14.1046 9.43988 14.5795 9.7302 14.8749C10.0205 15.1704 10.4954 15.1745 10.7908 14.8842L10.8617 14.8145C11.1519 15.0062 11.4736 15.1526 11.8199 15.2159C12.4607 15.3329 13.0979 15.1473 13.6215 14.6327C14.0905 14.1718 14.3802 13.5955 14.28 12.9204C14.1891 12.3084 13.7961 11.7786 13.3293 11.3198C12.943 10.9403 12.8661 10.7229 12.8556 10.6437L12.8553 10.6413C12.8518 10.6175 12.842 10.5492 13.0021 10.3918Z" fill="#98958D"/>
</svg>
