<svg width="25" height="24" viewBox="0 0 25 24" fill="none" xmlns="http://www.w3.org/2000/svg">
<path d="M4.85354 8.61072L11.3175 3.54689C12.2483 2.8177 13.5517 2.8177 14.4825 3.54689L20.9465 8.61072C21.6843 9.18877 21.8893 10.0491 21.8996 11.0435C21.9001 11.0974 21.8984 11.1495 21.8943 11.2033C21.8525 11.7548 21.5634 15.1249 20.4949 18.9084C20.1173 19.9615 19.2289 21 18.0067 21H16.818C16.0777 21 15.3713 20.3956 15.3713 19.65L15.4776 16.846C15.4776 15.4122 14.3236 14.2498 12.9 14.2498C11.4764 14.2498 10.3224 15.4122 10.3224 16.846L10.4417 19.65C10.4417 20.3956 9.72229 21 8.98203 21H7.79335C6.5711 21 5.6827 19.9615 5.30511 18.9084C4.23663 15.1249 3.9475 11.7548 3.90568 11.2033C3.9016 11.1495 3.89986 11.0974 3.90041 11.0435C3.91068 10.0491 4.11566 9.18877 4.85354 8.61072Z" fill="#98958D"/>
</svg>
