<svg width="25" height="24" viewBox="0 0 25 24" fill="none" xmlns="http://www.w3.org/2000/svg">
<g clip-path="url(#clip0_15005_26)">
<path d="M6.7526 12.4836L8.88906 13.1816C9.41275 13.3526 9.89916 13.3018 10.3761 13.0264L10.7311 12.8215C11.3 12.4931 11.961 12.4776 12.5446 12.7789L13.5587 13.3026C14.2598 13.6646 14.9244 13.826 15.7135 13.826H24.4525C24.4806 13.6212 24.4965 13.4135 24.4997 13.2038C24.5134 12.3109 24.0323 11.5357 23.244 11.1806L18.9157 9.23245L18.4838 10.031C18.3566 10.2664 18.1145 10.4 17.8645 10.4C17.7515 10.4 17.6369 10.3727 17.5305 10.3151C17.1888 10.1304 17.0616 9.70357 17.2464 9.36187L17.6294 8.65352L16.555 8.16992L16.0258 9.14593C15.8984 9.38091 15.6565 9.51422 15.4068 9.51422C15.2936 9.51422 15.1787 9.48684 15.0722 9.42906C14.7307 9.24393 14.6039 8.81698 14.7891 8.47547L15.2687 7.59099L13.9777 7.00995L13.5646 7.78259C13.4379 8.01958 13.1949 8.15449 12.9437 8.15449C12.8318 8.15449 12.7183 8.12771 12.6127 8.07126C12.2701 7.88814 12.1409 7.46194 12.324 7.11935L12.692 6.43125L11.1358 5.73087C11.0451 5.68998 10.9467 5.66888 10.8471 5.66888C10.0152 5.66888 9.31671 6.31885 9.25688 7.14865C9.2067 7.84397 8.62121 8.38862 7.92392 8.38862C7.18701 8.38862 6.5875 7.78911 6.5875 7.0522V6.74754C6.5875 6.45967 6.47519 6.18887 6.27135 5.98498C6.06742 5.781 5.79647 5.66691 5.50879 5.66888C3.93162 5.66902 2.64846 6.95222 2.64846 8.52944V11.7341C4.06765 11.7911 5.3593 12.0284 6.7526 12.4836Z" fill="#98958D"/>
<path d="M15.7135 15.2328C14.7019 15.2328 13.8121 15.0167 12.9133 14.5525L11.8992 14.0289C11.7408 13.9472 11.5888 13.9507 11.4345 14.0398L11.0795 14.2447C10.2602 14.7178 9.35165 14.8126 8.45221 14.5188L6.31576 13.8208C4.82675 13.3343 3.523 13.1267 1.95643 13.1267H1.8618L0.806308 14.9549C0.398627 15.661 0.397877 16.5029 0.804338 17.2068C1.21075 17.9108 1.94021 18.3311 2.75557 18.3311H9.35427C9.54339 18.3311 9.72453 18.255 9.85682 18.1198L10.6974 17.2614C10.7392 17.2187 10.7718 17.205 10.8315 17.205H11.9332C12.0349 17.205 12.1209 17.2909 12.1209 17.3927V17.5325C12.1209 17.921 12.4358 18.2359 12.8242 18.2359H19.3891C20.7373 18.2359 22.0107 17.7126 22.9747 16.7623C23.429 16.3144 23.7895 15.7964 24.0458 15.2328H15.7135V15.2328Z" fill="#98958D"/>
</g>
<defs>
<clipPath id="clip0_15005_26">
<rect width="24" height="24" fill="white" transform="translate(0.500008)"/>
</clipPath>
</defs>
</svg>
