<svg width="21" height="20" viewBox="0 0 21 20" fill="none" xmlns="http://www.w3.org/2000/svg">
<path d="M3.83334 9.16669V16.6667C3.83334 17.5872 4.57954 18.3334 5.50001 18.3334H15.5C16.4205 18.3334 17.1667 17.5872 17.1667 16.6667V9.16669" stroke="white" stroke-width="1.25" stroke-linecap="round" stroke-linejoin="round"/>
<path d="M10.5 4.79169V5.83335H7.58333C6.43274 5.83335 5.5 4.90061 5.5 3.75002V3.54169C5.5 2.50615 6.33947 1.66669 7.375 1.66669C9.10092 1.66669 10.5 3.0658 10.5 4.79169Z" stroke="white" stroke-width="1.25" stroke-linecap="round" stroke-linejoin="round"/>
<path d="M10.5 4.79169V5.83335H13.4167C14.5672 5.83335 15.5 4.90061 15.5 3.75002V3.54169C15.5 2.50615 14.6605 1.66669 13.625 1.66669C11.8991 1.66669 10.5 3.0658 10.5 4.79169Z" stroke="white" stroke-width="1.25" stroke-linecap="round" stroke-linejoin="round"/>
<path d="M17.5369 5.83331H3.46755C2.98255 5.83331 2.58903 6.20512 2.5878 6.66454L2.58335 8.3312C2.58212 8.79223 2.97635 9.16665 3.4631 9.16665H17.5369C18.0228 9.16665 18.4167 8.79356 18.4167 8.33331V6.66665C18.4167 6.20641 18.0228 5.83331 17.5369 5.83331Z" stroke="white" stroke-width="1.25" stroke-linejoin="round"/>
<path d="M10.5 9.16669V18.3334" stroke="white" stroke-width="1.25" stroke-linecap="round" stroke-linejoin="round"/>
</svg>
