<svg width="21" height="20" viewBox="0 0 21 20" fill="none" xmlns="http://www.w3.org/2000/svg">
<g clip-path="url(#clip0_13021_2631)">
<path d="M15.3082 14.7252C16.2498 14.7252 17.0165 13.9752 17.0248 13.0502C17.0248 12.5835 16.8332 12.1335 16.4915 11.8002L16.0332 11.3501C15.5998 10.9251 15.3582 10.3585 15.3582 9.75847V7.50015C15.3582 6.81681 15.2498 6.13349 14.9748 5.50015C14.1582 3.61682 12.3082 2.48347 10.3499 2.49181C7.59152 2.49181 5.35818 4.68347 5.35818 7.38347V9.75016C5.35818 10.3502 5.11652 10.9168 4.68318 11.3418L4.22485 11.7918C3.88318 12.1251 3.69151 12.5751 3.69151 13.0418C3.69151 13.9668 4.45818 14.7168 5.40818 14.7168H15.3165L15.3082 14.7252Z" stroke="white" stroke-width="1.5" stroke-linecap="round" stroke-linejoin="round"/>
<path d="M9.04959 17.5001H11.6579" stroke="white" stroke-width="1.5" stroke-linecap="round" stroke-linejoin="round"/>
</g>
<defs>
<clipPath id="clip0_13021_2631">
<rect width="20" height="20" fill="white" transform="translate(0.5)"/>
</clipPath>
</defs>
</svg>
