<svg width="21" height="20" viewBox="0 0 21 20" fill="none" xmlns="http://www.w3.org/2000/svg">
<path d="M13 15.8333C13 13.9916 10.7617 12.5 8 12.5C5.23833 12.5 3 13.9916 3 15.8333M16.3333 13.3333V10.8333M16.3333 10.8333V8.33331M16.3333 10.8333H13.8333M16.3333 10.8333H18.8333M8 9.99998C7.11594 9.99998 6.2681 9.64879 5.64298 9.02367C5.01786 8.39855 4.66667 7.5507 4.66667 6.66665C4.66667 5.78259 5.01786 4.93474 5.64298 4.30962C6.2681 3.6845 7.11594 3.33331 8 3.33331C8.88405 3.33331 9.7319 3.6845 10.357 4.30962C10.9821 4.93474 11.3333 5.78259 11.3333 6.66665C11.3333 7.5507 10.9821 8.39855 10.357 9.02367C9.7319 9.64879 8.88405 9.99998 8 9.99998Z" stroke="white" stroke-width="1.66667" stroke-linecap="round" stroke-linejoin="round"/>
</svg>
